<svg version="1.1" id="Camada_1" xmlns="http://www.w3.org/2000/svg" xmlns:xlink="http://www.w3.org/1999/xlink" x="0px" y="0px"
	 width="100px" height="100px" viewBox="0 0 100 100" enable-background="new 0 0 100 100" xml:space="preserve">
<path fill="#000000" d="M85.965,0.381L42.711,13.614c-5.24,1.496-9.49,6.961-9.49,12.203v44.994c0,0,0,0.615,0,0.631
	c0,0-3.133-2.112-10.114-1.125c-10.25,1.457-18.561,9.322-18.561,17.58c0,8.252,8.31,13.31,18.561,11.855
	c10.258-1.452,17.779-9.08,17.779-17.334c0,0,0-35.299,0-38.958c0-3.66,4.396-5.228,4.396-5.228l38.247-11.989
	c0,0,4.229-1.421,4.229,2.497c0,3.916,0,31.264,0,31.264s0,0.008,0,0.027c0,0-3.895-2.243-10.873-1.396
	c-10.25,1.243-18.566,8.95-18.566,17.197c0,8.259,8.316,13.486,18.566,12.238c10.256-1.243,18.568-8.941,18.568-17.2V7.164
	C95.453,1.922,91.205-1.114,85.965,0.381z"/>
</svg>
