<svg version="1.1" id="Camada_1" xmlns="http://www.w3.org/2000/svg" xmlns:xlink="http://www.w3.org/1999/xlink" x="0px" y="0px"
	 width="100px" height="100px" viewBox="0 0 100 100" enable-background="new 0 0 100 100" xml:space="preserve">
<path fill="#868686" d="M0,23.996v37.139c0,8.519,5.83,15.67,13.72,17.687l9.019,12.814c1.158,1.645,3.048,2.616,5.058,2.612
	s3.894-0.993,5.045-2.645l8.526-12.238h40.366c10.079,0,18.267-8.146,18.267-18.229V23.996c0-10.083-8.184-18.244-18.267-18.244
	H18.248C8.162,5.752-0.002,13.913,0,23.996z M60.337,42.564c0-3.273,2.665-5.934,5.954-5.934s5.956,2.66,5.956,5.934
	c0,3.281-2.667,5.936-5.956,5.936S60.337,45.846,60.337,42.564z M44.035,42.564c0-3.273,2.664-5.934,5.954-5.934
	s5.956,2.66,5.956,5.934c0,3.281-2.666,5.936-5.956,5.936S44.035,45.846,44.035,42.564z M27.731,42.564
	c0-3.273,2.665-5.934,5.956-5.934c3.287,0,5.956,2.66,5.956,5.934c0,3.281-2.669,5.936-5.956,5.936
	C30.396,48.5,27.731,45.846,27.731,42.564z"/>
</svg>
