<?xml version="1.0" encoding="utf-8"?>
<!-- Generator: Adobe Illustrator 16.0.0, SVG Export Plug-In . SVG Version: 6.00 Build 0)  -->
<!DOCTYPE svg PUBLIC "-//W3C//DTD SVG 1.1//EN" "http://www.w3.org/Graphics/SVG/1.1/DTD/svg11.dtd">
<svg version="1.1" id="Camada_1" xmlns="http://www.w3.org/2000/svg" xmlns:xlink="http://www.w3.org/1999/xlink" x="0px" y="0px"
	 width="100px" height="100px" viewBox="0 0 100 100" enable-background="new 0 0 100 100" xml:space="preserve">
<g>
	<path fill="#FFFFFF" d="M100,25.283c0,2.422-1.941,4.403-4.316,4.403H30.935c-2.374,0-4.316-1.981-4.316-4.403V16.87
		c0-2.422,1.942-4.403,4.316-4.403h64.749c2.375,0,4.316,1.981,4.316,4.403V25.283z"/>
	<path fill="#FFFFFF" d="M100,54.205c0,2.423-1.941,4.402-4.316,4.402H30.935c-2.374,0-4.316-1.979-4.316-4.402v-8.411
		c0-2.423,1.942-4.403,4.316-4.403h64.749c2.375,0,4.316,1.98,4.316,4.403V54.205z"/>
	<path fill="#FFFFFF" d="M100,83.129c0,2.421-1.941,4.402-4.316,4.402H30.935c-2.374,0-4.316-1.981-4.316-4.402v-8.414
		c0-2.421,1.942-4.402,4.316-4.402h64.749c2.375,0,4.316,1.981,4.316,4.402V83.129z"/>
	<path fill="#FFFFFF" d="M18.278,25.283c0,2.422-1.942,4.403-4.316,4.403H4.316C1.942,29.686,0,27.705,0,25.283V16.87
		c0-2.422,1.942-4.403,4.316-4.403h9.645c2.375,0,4.316,1.981,4.316,4.403L18.278,25.283L18.278,25.283z"/>
	<path fill="#FFFFFF" d="M18.278,54.205c0,2.423-1.942,4.402-4.316,4.402H4.316C1.942,58.607,0,56.628,0,54.205v-8.411
		c0-2.423,1.942-4.403,4.316-4.403h9.645c2.375,0,4.316,1.98,4.316,4.403L18.278,54.205L18.278,54.205z"/>
	<path fill="#FFFFFF" d="M18.278,83.129c0,2.421-1.942,4.402-4.316,4.402H4.316C1.942,87.531,0,85.55,0,83.129v-8.414
		c0-2.421,1.942-4.402,4.316-4.402h9.645c2.375,0,4.316,1.981,4.316,4.402L18.278,83.129L18.278,83.129z"/>
</g>
</svg>
