<?xml version="1.0" encoding="utf-8"?>
<!-- Generator: Adobe Illustrator 16.0.0, SVG Export Plug-In . SVG Version: 6.00 Build 0)  -->
<!DOCTYPE svg PUBLIC "-//W3C//DTD SVG 1.1//EN" "http://www.w3.org/Graphics/SVG/1.1/DTD/svg11.dtd">
<svg version="1.1" id="Camada_1" xmlns="http://www.w3.org/2000/svg" xmlns:xlink="http://www.w3.org/1999/xlink" x="0px" y="0px"
	 width="100px" height="100px" viewBox="0 0 100 100" enable-background="new 0 0 100 100" xml:space="preserve">
<path fill="#FFFFFF" d="M100,18.992c-3.68,1.63-7.628,2.737-11.777,3.232c4.233-2.539,7.481-6.563,9.021-11.346
	c-3.976,2.353-8.36,4.06-13.037,4.983c-3.74-3.994-9.067-6.481-14.97-6.481c-11.334,0-20.517,9.187-20.517,20.509
	c0,1.608,0.183,3.176,0.532,4.675C32.205,33.71,17.083,25.54,6.963,13.132c-1.764,3.023-2.769,6.546-2.769,10.311
	c0,7.118,3.624,13.398,9.123,17.072c-3.361-0.114-6.525-1.037-9.295-2.575v0.254c0,9.939,7.08,18.226,16.452,20.119
	c-1.715,0.465-3.526,0.722-5.4,0.722c-1.322,0-2.606-0.136-3.861-0.38c2.61,8.154,10.184,14.087,19.161,14.25
	c-7.019,5.498-15.865,8.771-25.479,8.771c-1.654,0-3.29-0.1-4.896-0.283c9.081,5.828,19.858,9.228,31.448,9.228
	c37.733,0,58.366-31.259,58.366-58.364l-0.066-2.659C93.77,26.716,97.254,23.102,100,18.992z"/>
</svg>
