<?xml version="1.0" encoding="utf-8"?>
<!-- Generator: Adobe Illustrator 16.0.0, SVG Export Plug-In . SVG Version: 6.00 Build 0)  -->
<!DOCTYPE svg PUBLIC "-//W3C//DTD SVG 1.1//EN" "http://www.w3.org/Graphics/SVG/1.1/DTD/svg11.dtd">
<svg version="1.1" id="Layer_1" xmlns="http://www.w3.org/2000/svg" xmlns:xlink="http://www.w3.org/1999/xlink" x="0px" y="0px"
	 width="450.178px" height="389.868px" viewBox="0 0 450.178 389.868" enable-background="new 0 0 450.178 389.868"
	 xml:space="preserve">
<g>
	<polygon fill="#FFFFFF" points="223.277,260.545 222.069,265.479 226.88,265.479 225.76,260.545 	"/>
	<polygon fill="#FFFFFF" points="254.29,129.515 253.074,134.447 257.893,134.447 256.765,129.515 	"/>
	<path fill="#FFFFFF" d="M258.318,123.633h-0.068c0,0-0.204,1.655-0.641,3.394l-0.598,2.487h2.477l-0.572-2.487
		C258.524,125.329,258.318,123.633,258.318,123.633z"/>
	<path fill="#FFFFFF" d="M227.307,254.657h-0.07c0,0-0.201,1.667-0.639,3.393l-0.606,2.496h2.483l-0.57-2.496
		C227.514,256.353,227.307,254.657,227.307,254.657z"/>
	<path fill="#FFFFFF" d="M165.782,61.863c-0.392-1.697-0.59-3.393-0.59-3.393h-0.076c0,0-0.198,1.657-0.634,3.393l-0.613,2.487
		h2.483L165.782,61.863z"/>
	<path fill="#FFFFFF" d="M142.379,121.536c-2.211,0-2.449,3.873-2.449,7.625c0,0.116,0,0.234,0.002,0.354h-2.718
		c0.014,3.668,0.303,7.261,2.442,7.261c2.105,0,2.354-3.592,2.369-7.261h2.719c0.001-0.12,0.001-0.238,0.001-0.354
		C144.746,125.408,144.547,121.536,142.379,121.536z"/>
	<path fill="#FFFFFF" d="M177.124,189.263h-0.077c0,0-0.194,1.66-0.633,3.394l-0.604,2.487h2.482l-0.571-2.487
		C177.323,190.958,177.124,189.263,177.124,189.263z"/>
	<polygon fill="#FFFFFF" points="173.087,195.144 171.879,200.085 176.697,200.085 175.569,195.144 	"/>
	<polygon fill="#FFFFFF" points="161.154,64.35 159.947,69.283 164.765,69.283 163.637,64.35 	"/>
	<path fill="#FFFFFF" d="M228.529,60.065c0-2.8-0.595-4.225-3.443-4.225c-0.317,0-0.515,0.042-0.746,0.081v8.568
		c0.118,0.037,0.279,0.037,0.508,0.037C227.338,64.525,228.529,62.55,228.529,60.065z"/>
	<path fill="#FFFFFF" d="M341.869,55.84c-0.314,0-0.519,0.042-0.748,0.081v8.568c0.116,0.037,0.277,0.037,0.507,0.037
		c2.497,0,3.672-1.976,3.672-4.46C345.299,57.265,344.71,55.84,341.869,55.84z"/>
	<path fill="#FFFFFF" d="M19.506,16.893l205.585,356.082l205.58-356.082H19.506z M210.837,64.585h2.723V52.13
		c2.998-1.067,6.909-1.657,11.368-1.657c10.114,0,14.406,3.789,14.406,9.078c0,1.766-1.187,3.687-2.773,5.034h-2.723
		c-0.677,0.58-1.434,1.055-2.184,1.361v0.08l6.584,12.201h-11.961l-4.581-11.293h-0.078v11.293h-10.781V64.585z M236.016,195.144
		h-2.722c0.932,1.194,1.547,2.78,1.547,4.971c0,5.092-4.814,9.198-11.841,9.198c-4.341,0-7.542-0.624-9.559-1.655l2.373-6.674
		c0.825,0.552,3.118,1.263,4.975,1.263c1.617,0,2.49-0.553,2.49-1.424c0-2.232-4.85-2.615-7.503-5.679h2.716
		c-1.004-1.159-1.696-2.691-1.696-4.853c0-5.217,4.577-9.323,11.526-9.323c3.946,0,6.717,0.755,8.417,1.663l-2.179,5.883
		c-1.104-0.516-2.756-1.109-4.495-1.109c-1.585,0-2.684,0.514-2.684,1.5C227.381,191.498,233.164,191.485,236.016,195.144z
		 M115.095,56.886h-7.46v4.384h6.315v3.08h-2.719v2.881h-6.316v10.7H94.058V64.35h2.72V50.769h18.317V56.886z M153.16,129.515v0.001
		c0,7.615-3.948,14.172-13.503,14.172c-9.556,0-13.581-6.557-13.581-14.172v-0.001h2.719c0-7.625,4.03-14.176,13.584-14.176
		c9.553,0,13.5,6.551,13.5,14.176H153.16z M157.852,77.931h-10.264l4.976-13.581h2.721l4.971-13.583h10.857l4.977,13.583h-2.724
		l4.977,13.581h-11.57l-0.826-3.516h-7.226L157.852,77.931z M178.713,208.732l-0.83-3.525h-7.227l-0.865,3.525h-10.264l4.972-13.588
		h2.719l4.976-13.58h10.858l4.97,13.58h-2.715l4.973,13.588H178.713z M203.378,132.158c-0.067-0.979-0.069-1.971-0.063-2.644h-0.282
		c-0.187,0.666-0.48,1.649-0.842,2.644c0,0-3.122,8.688-4.062,10.936h-4.702c-0.788-1.935-4.065-10.936-4.065-10.936
		c-0.373-1.043-0.66-1.996-0.846-2.644h-0.263c0.022,0.637,0.033,1.586-0.035,2.644c0,0-0.557,9.001-0.676,10.936h-8.844
		l1.481-13.58h2.723l1.481-13.583h10.223l3.515,10.738c0.401,1.241,0.681,2.399,0.785,2.844h0.218
		c0.122-0.442,0.453-1.595,0.89-2.809l3.867-10.773h10.149l1.523,13.583h-2.723l1.522,13.58h-10.268
		C203.967,141.397,203.378,132.158,203.378,132.158z M228.897,274.127l-0.827-3.514h-7.226l-0.869,3.514h-10.264l4.976-13.582h2.718
		l4.973-13.58h10.855l4.975,13.58h-2.708l4.962,13.582H228.897z M259.083,139.58h-7.228l-0.869,3.514H240.73l4.969-13.58h2.715
		l4.975-13.583h10.865l4.966,13.583h-2.709l4.967,13.58H259.91L259.083,139.58z M284.047,195.144h-2.723l7.286,13.587h-12.292
		l-5.323-13.269h-0.08v13.269h-10.861v-13.587h2.723v-13.579h10.858v12.274h0.086l5.716-12.274h11.214l-7.267,12.353
		L284.047,195.144z M293.445,56.886h-7.46v4.384h6.317v3.08h-2.711v2.881h-6.329v10.7h-10.851V64.35h2.724V50.769h18.31V56.886z
		 M324.103,143.094h-17.894v-13.58h2.723v-13.583h10.859v13.583h-2.712v7.458h7.023V143.094z M343.055,78.227l-4.581-11.293h-0.076
		v11.293h-10.782V64.585h2.723V52.13c3.006-1.067,6.91-1.657,11.375-1.657c10.102,0,14.408,3.789,14.408,9.078
		c0,1.766-1.199,3.687-2.779,5.034h-2.717c-0.683,0.58-1.434,1.055-2.201,1.361v0.08l6.601,12.201H343.055z"/>
</g>
</svg>
