<?xml version="1.0" encoding="utf-8"?>
<!-- Generator: Adobe Illustrator 16.0.0, SVG Export Plug-In . SVG Version: 6.00 Build 0)  -->
<!DOCTYPE svg PUBLIC "-//W3C//DTD SVG 1.1//EN" "http://www.w3.org/Graphics/SVG/1.1/DTD/svg11.dtd">
<svg version="1.1" xmlns="http://www.w3.org/2000/svg" xmlns:xlink="http://www.w3.org/1999/xlink" x="0px" y="0px"
	 width="421.479px" height="62.997px" viewBox="0 0 421.479 62.997" enable-background="new 0 0 421.479 62.997"
	 xml:space="preserve">
<g id="Layer_2" display="none">
	<g display="inline" opacity="0.3">
		<polygon fill="#00A651" points="363.504,32.503 363.504,33.206 364.014,33.206 363.607,32.503 		"/>
		<polygon fill="#00A651" points="32.773,30.33 25.342,30.33 25.342,20.776 33.836,20.776 33.836,15.151 18.074,15.151 
			18.074,33.206 32.773,33.206 		"/>
		<path fill="#00A651" d="M53.479,24.281c0.691-2.653,1.279-5.254,1.279-5.254h0.052c0,0,0.64,2.865,1.271,5.254l2.333,8.925h3.025
			l-5.246-18.055H53.54l-5.307,18.055h2.843L53.479,24.281z"/>
		<path fill="#00A651" d="M81.522,17.7c0.899-0.479,2.013-0.743,3.768-0.743c4.883,0,7,2.921,7,8.702
			c0,4.71-2.731,6.747-5.799,7.546h5.336c2.199-1.771,3.703-4.448,3.703-7.598c0-6.9-3.448-10.984-10.085-10.984
			c-3.077,0-5.678,0.847-7.164,2.122v16.46h3.241V17.7z"/>
		<polygon fill="#00A651" points="122.717,29.958 116.132,29.958 116.132,21.788 123.78,21.788 123.78,15.151 107.534,15.151 
			107.534,33.206 122.717,33.206 		"/>
		<path fill="#00A651" d="M138.808,17.7c0.899-0.479,2.014-0.743,3.768-0.743c4.883,0,7,2.921,7,8.702
			c0,4.71-2.731,6.747-5.799,7.546h5.336c2.199-1.771,3.703-4.448,3.703-7.598c0-6.9-3.448-10.984-10.085-10.984
			c-3.076,0-5.678,0.847-7.164,2.122v16.46h3.241V17.7z"/>
		<path fill="#00A651" d="M175.916,17.276c5.911,0,7.562,8.069,7.587,15.929h3.388c-0.035-10.044-3.012-18.582-10.975-18.582
			c-7.955,0-10.932,8.538-10.975,18.582h3.396C168.354,25.346,170.014,17.276,175.916,17.276z"/>
		<path fill="#00A651" d="M221.303,22.794c0.476-2.018,0.847-4.191,0.847-4.191h0.104c0,0,0.06,2.23,0.216,4.191l0.898,10.411h2.93
			l-1.866-18.055h-3.872l-4.122,18.055h2.454L221.303,22.794z"/>
		<path fill="#00A651" d="M204.105,22.846c0.164-1.858,0.216-4.243,0.216-4.243h0.104c0,0,0.423,2.493,0.847,4.243l2.428,10.359
			h2.731l-4.2-18.055h-3.872l-1.867,18.055h2.74L204.105,22.846z"/>
		<path fill="#00A651" d="M249.346,30.01c0.475-2.173,0.847-4.511,0.847-4.511h0.104c0,0,0.372,2.39,0.804,4.511l0.661,3.195h7.851
			l-4.805-18.055h-7.847l-4.882,18.055h6.533L249.346,30.01z"/>
		<rect x="274.942" y="15.151" fill="#00A651" width="3.396" height="18.055"/>
		<path fill="#00A651" d="M307.479,24.281c0.691-2.653,1.279-5.254,1.279-5.254h0.052c0,0,0.64,2.865,1.271,5.254l2.333,8.925h3.024
			l-5.245-18.055h-2.653l-5.306,18.055h2.843L307.479,24.281z"/>
		<path fill="#00A651" d="M340.136,31.868c-4.087-3.133-5.833-5.198-5.833-8.754c0-3.608,2.065-5.734,5.307-5.734
			c2.488,0,4.19,1.011,5.142,1.806l0.907-2.441c-1.219-1.223-3.293-2.122-6.162-2.122c-4.666,0-8.486,3.556-8.486,9.022
			c0,3.744,2.04,6.685,5.471,9.56h5.293C341.251,32.758,340.715,32.313,340.136,31.868z"/>
		<polygon fill="#00A651" points="363.504,32.503 363.607,32.503 364.014,33.206 367.245,33.206 366.684,32.292 377.883,15.151 
			374.539,15.151 363.607,32.348 363.504,32.348 363.504,15.151 360.211,15.151 360.211,33.206 363.504,33.206 		"/>
		<path fill="#00A651" d="M396.351,24.281c0.691-2.653,1.279-5.254,1.279-5.254h0.052c0,0,0.64,2.865,1.271,5.254l2.333,8.925h3.024
			l-5.245-18.055h-2.653l-5.306,18.055h2.843L396.351,24.281z"/>
		<path fill="#00A651" d="M138.808,33.515c0.423,0.104,0.691,0.16,1.219,0.16c1.201,0,2.501-0.143,3.75-0.469h-4.969V33.515z"/>
		<path fill="#00A651" d="M81.522,33.515c0.423,0.104,0.691,0.16,1.218,0.16c1.201,0,2.502-0.143,3.75-0.469h-4.969V33.515z"/>
		<polygon fill="#00A651" points="22.704,51.663 22.704,35.795 30.136,35.795 30.136,33.205 15.437,33.205 15.437,51.663 		"/>
		<polygon fill="#00A651" points="43.414,51.663 46.707,39.564 57.479,39.564 60.715,51.663 64.163,51.663 58.796,33.205 
			55.776,33.205 56.787,37.067 47.394,37.067 48.435,33.205 45.596,33.205 40.178,51.663 		"/>
		<path fill="#00A651" d="M78.936,51.663V34.097h0.104l10.824,17.566h3.824L83.499,35.527v-0.104
			c2.091-0.091,4.075-0.916,5.69-2.219h-5.336c-1.249,0.326-2.554,0.469-3.751,0.469c-0.531,0-0.799-0.057-1.223-0.16v-0.309h-3.236
			v18.458H78.936z"/>
		<polygon fill="#00A651" points="113.495,51.663 113.495,36.376 120.075,36.376 120.075,33.205 104.896,33.205 104.896,51.663 		
			"/>
		<path fill="#00A651" d="M136.223,51.663V34.097h0.104l10.824,17.566h3.824l-10.189-16.136v-0.104
			c2.092-0.091,4.075-0.916,5.691-2.219h-5.336c-1.249,0.326-2.554,0.469-3.75,0.469c-0.532,0-0.799-0.057-1.223-0.16v-0.309h-3.237
			v18.458H136.223z"/>
		<path fill="#00A651" d="M173.278,52.19c8.016,0,10.984-8.538,10.984-18.785c0-0.069-0.009-0.132-0.009-0.2h-3.392
			c0,0.049,0.004,0.099,0.004,0.148c0,7.802-1.378,15.977-7.588,15.977c-6.153,0-7.587-8.175-7.587-15.977
			c0-0.05,0.004-0.1,0.004-0.148h-3.392c0,0.068-0.009,0.131-0.009,0.2C162.295,43.652,165.268,52.19,173.278,52.19z"/>
		<polygon fill="#00A651" points="222.325,51.663 225.562,51.663 223.656,33.205 220.727,33.205 		"/>
		<path fill="#00A651" d="M209.375,51.663h2.602l4.273-18.458h-2.454l-2.031,8.9c-0.588,2.445-0.903,4.623-0.903,4.623h-0.108
			c0,0-0.315-2.178-0.903-4.675l-2.061-8.849h-2.731L209.375,51.663z"/>
		<polygon fill="#00A651" points="199.027,51.663 200.591,33.205 197.855,33.205 195.95,51.663 		"/>
		<polygon fill="#00A651" points="241.769,51.663 243.256,45.398 251.643,45.398 253.124,51.663 261.883,51.663 256.97,33.205 
			249.123,33.205 250.472,39.721 244.479,39.721 245.969,33.205 239.436,33.205 234.445,51.663 		"/>
		<polygon fill="#00A651" points="285.57,51.663 285.57,49.011 275.696,49.011 275.696,33.205 272.301,33.205 272.301,51.663 		"/>
		<polygon fill="#00A651" points="297.413,51.663 300.706,39.564 311.478,39.564 314.715,51.663 318.162,51.663 312.796,33.205 
			309.775,33.205 310.787,37.067 301.393,37.067 302.435,33.205 299.596,33.205 294.177,51.663 		"/>
		<path fill="#00A651" d="M340.838,43.169c0,3.819-2.597,5.997-5.992,5.997c-2.869,0-4.671-0.95-5.838-1.91l-1.011,2.817
			c1.646,1.322,3.876,2.117,7.164,2.117c5.521,0,9.182-3.871,9.182-9.652c0-3.872-2.078-6.646-5.207-9.333h-5.293
			c0.312,0.261,0.558,0.524,0.895,0.784C338.929,37.171,340.838,39.349,340.838,43.169z"/>
		<polygon fill="#00A651" points="372.108,51.663 375.933,51.663 364.607,33.205 361.371,33.205 		"/>
		<rect x="357.569" y="33.205" fill="#00A651" width="3.292" height="18.458"/>
		<polygon fill="#00A651" points="386.285,51.663 389.578,39.564 400.35,39.564 403.586,51.663 407.034,51.663 401.668,33.205 
			398.647,33.205 399.659,37.067 390.266,37.067 391.307,33.205 388.468,33.205 383.049,51.663 		"/>
	</g>
</g>
<g id="Layer_3" display="none">
	<g display="inline" opacity="0.3">
		<polygon fill="#ED1C24" points="371.504,32.503 371.504,33.206 372.014,33.206 371.607,32.503 		"/>
		<polygon fill="#ED1C24" points="40.773,30.33 33.342,30.33 33.342,20.776 41.836,20.776 41.836,15.151 26.074,15.151 
			26.074,33.206 40.773,33.206 		"/>
		<path fill="#ED1C24" d="M61.479,24.281c0.691-2.653,1.279-5.254,1.279-5.254h0.052c0,0,0.64,2.865,1.271,5.254l2.333,8.925h3.025
			l-5.246-18.055H61.54l-5.307,18.055h2.843L61.479,24.281z"/>
		<path fill="#ED1C24" d="M89.522,17.7c0.899-0.479,2.013-0.743,3.768-0.743c4.883,0,7,2.921,7,8.702
			c0,4.71-2.731,6.747-5.799,7.546h5.336c2.199-1.771,3.703-4.448,3.703-7.598c0-6.9-3.448-10.984-10.085-10.984
			c-3.077,0-5.678,0.847-7.164,2.122v16.46h3.241V17.7z"/>
		<polygon fill="#ED1C24" points="130.717,29.958 124.132,29.958 124.132,21.788 131.78,21.788 131.78,15.151 115.534,15.151 
			115.534,33.206 130.717,33.206 		"/>
		<path fill="#ED1C24" d="M146.808,17.7c0.899-0.479,2.014-0.743,3.768-0.743c4.883,0,7,2.921,7,8.702
			c0,4.71-2.731,6.747-5.799,7.546h5.336c2.199-1.771,3.703-4.448,3.703-7.598c0-6.9-3.448-10.984-10.085-10.984
			c-3.076,0-5.678,0.847-7.164,2.122v16.46h3.241V17.7z"/>
		<path fill="#ED1C24" d="M183.916,17.276c5.911,0,7.562,8.069,7.587,15.929h3.388c-0.035-10.044-3.012-18.582-10.975-18.582
			c-7.955,0-10.932,8.538-10.975,18.582h3.396C176.354,25.346,178.014,17.276,183.916,17.276z"/>
		<path fill="#ED1C24" d="M229.303,22.794c0.476-2.018,0.847-4.191,0.847-4.191h0.104c0,0,0.06,2.23,0.216,4.191l0.898,10.411h2.93
			l-1.866-18.055h-3.872l-4.122,18.055h2.454L229.303,22.794z"/>
		<path fill="#ED1C24" d="M212.105,22.846c0.164-1.858,0.216-4.243,0.216-4.243h0.104c0,0,0.423,2.493,0.847,4.243l2.428,10.359
			h2.731l-4.2-18.055h-3.872l-1.867,18.055h2.74L212.105,22.846z"/>
		<path fill="#ED1C24" d="M257.346,30.01c0.475-2.173,0.847-4.511,0.847-4.511h0.104c0,0,0.372,2.39,0.804,4.511l0.661,3.195h7.851
			l-4.805-18.055h-7.847l-4.882,18.055h6.533L257.346,30.01z"/>
		<rect x="282.942" y="15.151" fill="#ED1C24" width="3.396" height="18.055"/>
		<path fill="#ED1C24" d="M315.479,24.281c0.691-2.653,1.279-5.254,1.279-5.254h0.052c0,0,0.64,2.865,1.271,5.254l2.333,8.925h3.024
			l-5.245-18.055h-2.653l-5.306,18.055h2.843L315.479,24.281z"/>
		<path fill="#ED1C24" d="M348.136,31.868c-4.087-3.133-5.833-5.198-5.833-8.754c0-3.608,2.065-5.734,5.307-5.734
			c2.488,0,4.19,1.011,5.142,1.806l0.907-2.441c-1.219-1.223-3.293-2.122-6.162-2.122c-4.666,0-8.486,3.556-8.486,9.022
			c0,3.744,2.04,6.685,5.471,9.56h5.293C349.251,32.758,348.715,32.313,348.136,31.868z"/>
		<polygon fill="#ED1C24" points="371.504,32.503 371.607,32.503 372.014,33.206 375.245,33.206 374.684,32.292 385.883,15.151 
			382.539,15.151 371.607,32.348 371.504,32.348 371.504,15.151 368.211,15.151 368.211,33.206 371.504,33.206 		"/>
		<path fill="#ED1C24" d="M404.351,24.281c0.691-2.653,1.279-5.254,1.279-5.254h0.052c0,0,0.64,2.865,1.271,5.254l2.333,8.925h3.024
			l-5.245-18.055h-2.653l-5.306,18.055h2.843L404.351,24.281z"/>
		<path fill="#ED1C24" d="M146.808,33.515c0.423,0.104,0.691,0.16,1.219,0.16c1.201,0,2.501-0.143,3.75-0.469h-4.969V33.515z"/>
		<path fill="#ED1C24" d="M89.522,33.515c0.423,0.104,0.691,0.16,1.218,0.16c1.201,0,2.502-0.143,3.75-0.469h-4.969V33.515z"/>
		<polygon fill="#ED1C24" points="30.704,51.663 30.704,35.795 38.136,35.795 38.136,33.205 23.437,33.205 23.437,51.663 		"/>
		<polygon fill="#ED1C24" points="51.414,51.663 54.707,39.564 65.479,39.564 68.715,51.663 72.163,51.663 66.796,33.205 
			63.776,33.205 64.787,37.067 55.394,37.067 56.435,33.205 53.596,33.205 48.178,51.663 		"/>
		<path fill="#ED1C24" d="M86.936,51.663V34.097h0.104l10.824,17.566h3.824L91.499,35.527v-0.104
			c2.091-0.091,4.075-0.916,5.69-2.219h-5.336c-1.249,0.326-2.554,0.469-3.751,0.469c-0.531,0-0.799-0.057-1.223-0.16v-0.309h-3.236
			v18.458H86.936z"/>
		<polygon fill="#ED1C24" points="121.495,51.663 121.495,36.376 128.075,36.376 128.075,33.205 112.896,33.205 112.896,51.663 		
			"/>
		<path fill="#ED1C24" d="M144.223,51.663V34.097h0.104l10.824,17.566h3.824l-10.189-16.136v-0.104
			c2.092-0.091,4.075-0.916,5.691-2.219h-5.336c-1.249,0.326-2.554,0.469-3.75,0.469c-0.532,0-0.799-0.057-1.223-0.16v-0.309h-3.237
			v18.458H144.223z"/>
		<path fill="#ED1C24" d="M181.278,52.19c8.016,0,10.984-8.538,10.984-18.785c0-0.069-0.009-0.132-0.009-0.2h-3.392
			c0,0.049,0.004,0.099,0.004,0.148c0,7.802-1.378,15.977-7.588,15.977c-6.153,0-7.587-8.175-7.587-15.977
			c0-0.05,0.004-0.1,0.004-0.148h-3.392c0,0.068-0.009,0.131-0.009,0.2C170.295,43.652,173.268,52.19,181.278,52.19z"/>
		<polygon fill="#ED1C24" points="230.325,51.663 233.562,51.663 231.656,33.205 228.727,33.205 		"/>
		<path fill="#ED1C24" d="M217.375,51.663h2.602l4.273-18.458h-2.454l-2.031,8.9c-0.588,2.445-0.903,4.623-0.903,4.623h-0.107
			c0,0-0.315-2.178-0.903-4.675l-2.061-8.849h-2.731L217.375,51.663z"/>
		<polygon fill="#ED1C24" points="207.027,51.663 208.591,33.205 205.855,33.205 203.95,51.663 		"/>
		<polygon fill="#ED1C24" points="249.769,51.663 251.256,45.398 259.643,45.398 261.124,51.663 269.883,51.663 264.97,33.205 
			257.123,33.205 258.472,39.721 252.479,39.721 253.969,33.205 247.436,33.205 242.445,51.663 		"/>
		<polygon fill="#ED1C24" points="293.57,51.663 293.57,49.011 283.696,49.011 283.696,33.205 280.301,33.205 280.301,51.663 		"/>
		<polygon fill="#ED1C24" points="305.413,51.663 308.706,39.564 319.478,39.564 322.715,51.663 326.162,51.663 320.796,33.205 
			317.775,33.205 318.787,37.067 309.393,37.067 310.435,33.205 307.596,33.205 302.177,51.663 		"/>
		<path fill="#ED1C24" d="M348.838,43.169c0,3.819-2.597,5.997-5.992,5.997c-2.869,0-4.671-0.95-5.838-1.91l-1.011,2.817
			c1.646,1.322,3.876,2.117,7.164,2.117c5.521,0,9.182-3.871,9.182-9.652c0-3.872-2.078-6.646-5.207-9.333h-5.293
			c0.312,0.261,0.558,0.524,0.895,0.784C346.929,37.171,348.838,39.349,348.838,43.169z"/>
		<polygon fill="#ED1C24" points="380.108,51.663 383.933,51.663 372.607,33.205 369.371,33.205 		"/>
		<rect x="365.569" y="33.205" fill="#ED1C24" width="3.292" height="18.458"/>
		<polygon fill="#ED1C24" points="394.285,51.663 397.578,39.564 408.35,39.564 411.586,51.663 415.034,51.663 409.668,33.205 
			406.647,33.205 407.659,37.067 398.266,37.067 399.307,33.205 396.468,33.205 391.049,51.663 		"/>
	</g>
</g>
<g id="Layer_1">
	<g>
		<polygon fill="#FFFFFF" points="367.504,32.503 367.504,33.206 368.014,33.206 367.607,32.503 		"/>
		<polygon fill="#FFFFFF" points="36.773,30.33 29.342,30.33 29.342,20.776 37.836,20.776 37.836,15.151 22.074,15.151 
			22.074,33.206 36.773,33.206 		"/>
		<path fill="#FFFFFF" d="M57.479,24.281c0.691-2.653,1.279-5.254,1.279-5.254h0.052c0,0,0.64,2.865,1.271,5.254l2.333,8.925h3.025
			l-5.246-18.055H57.54l-5.307,18.055h2.843L57.479,24.281z"/>
		<path fill="#FFFFFF" d="M85.522,17.7c0.899-0.479,2.013-0.743,3.768-0.743c4.883,0,7,2.921,7,8.702
			c0,4.71-2.731,6.747-5.799,7.546h5.336c2.199-1.771,3.703-4.448,3.703-7.598c0-6.9-3.448-10.984-10.085-10.984
			c-3.077,0-5.678,0.847-7.164,2.122v16.46h3.241V17.7z"/>
		<polygon fill="#FFFFFF" points="126.717,29.958 120.132,29.958 120.132,21.788 127.78,21.788 127.78,15.151 111.534,15.151 
			111.534,33.206 126.717,33.206 		"/>
		<path fill="#FFFFFF" d="M142.808,17.7c0.899-0.479,2.014-0.743,3.768-0.743c4.883,0,7,2.921,7,8.702
			c0,4.71-2.731,6.747-5.799,7.546h5.336c2.199-1.771,3.703-4.448,3.703-7.598c0-6.9-3.448-10.984-10.085-10.984
			c-3.076,0-5.678,0.847-7.164,2.122v16.46h3.241V17.7z"/>
		<path fill="#FFFFFF" d="M179.916,17.276c5.911,0,7.562,8.069,7.587,15.929h3.388c-0.035-10.044-3.012-18.582-10.975-18.582
			c-7.955,0-10.932,8.538-10.975,18.582h3.396C172.354,25.346,174.014,17.276,179.916,17.276z"/>
		<path fill="#FFFFFF" d="M225.303,22.794c0.476-2.018,0.847-4.191,0.847-4.191h0.104c0,0,0.06,2.23,0.216,4.191l0.898,10.411h2.93
			l-1.866-18.055h-3.872l-4.122,18.055h2.454L225.303,22.794z"/>
		<path fill="#FFFFFF" d="M208.105,22.846c0.164-1.858,0.216-4.243,0.216-4.243h0.104c0,0,0.423,2.493,0.847,4.243l2.428,10.359
			h2.731l-4.2-18.055h-3.872l-1.867,18.055h2.74L208.105,22.846z"/>
		<path fill="#FFFFFF" d="M253.346,30.01c0.475-2.173,0.847-4.511,0.847-4.511h0.104c0,0,0.372,2.39,0.804,4.511l0.661,3.195h7.851
			l-4.805-18.055h-7.847l-4.882,18.055h6.533L253.346,30.01z"/>
		<rect x="278.942" y="15.151" fill="#FFFFFF" width="3.396" height="18.055"/>
		<path fill="#FFFFFF" d="M311.479,24.281c0.691-2.653,1.279-5.254,1.279-5.254h0.052c0,0,0.64,2.865,1.271,5.254l2.333,8.925h3.024
			l-5.245-18.055h-2.653l-5.306,18.055h2.843L311.479,24.281z"/>
		<path fill="#FFFFFF" d="M344.136,31.868c-4.087-3.133-5.833-5.198-5.833-8.754c0-3.608,2.065-5.734,5.307-5.734
			c2.488,0,4.19,1.011,5.142,1.806l0.907-2.441c-1.219-1.223-3.293-2.122-6.162-2.122c-4.666,0-8.486,3.556-8.486,9.022
			c0,3.744,2.04,6.685,5.471,9.56h5.293C345.251,32.758,344.715,32.313,344.136,31.868z"/>
		<polygon fill="#FFFFFF" points="367.504,32.503 367.607,32.503 368.014,33.206 371.245,33.206 370.684,32.292 381.883,15.151 
			378.539,15.151 367.607,32.348 367.504,32.348 367.504,15.151 364.211,15.151 364.211,33.206 367.504,33.206 		"/>
		<path fill="#FFFFFF" d="M400.351,24.281c0.691-2.653,1.279-5.254,1.279-5.254h0.052c0,0,0.64,2.865,1.271,5.254l2.333,8.925h3.024
			l-5.245-18.055h-2.653l-5.306,18.055h2.843L400.351,24.281z"/>
		<path fill="#FFFFFF" d="M142.808,33.515c0.423,0.104,0.691,0.16,1.219,0.16c1.201,0,2.501-0.143,3.75-0.469h-4.969V33.515z"/>
		<path fill="#FFFFFF" d="M85.522,33.515c0.423,0.104,0.691,0.16,1.218,0.16c1.201,0,2.502-0.143,3.75-0.469h-4.969V33.515z"/>
		<polygon fill="#FFFFFF" points="26.704,51.663 26.704,35.795 34.136,35.795 34.136,33.205 19.437,33.205 19.437,51.663 		"/>
		<polygon fill="#FFFFFF" points="47.414,51.663 50.707,39.564 61.479,39.564 64.715,51.663 68.163,51.663 62.796,33.205 
			59.776,33.205 60.787,37.067 51.394,37.067 52.435,33.205 49.596,33.205 44.178,51.663 		"/>
		<path fill="#FFFFFF" d="M82.936,51.663V34.097h0.104l10.824,17.566h3.824L87.499,35.527v-0.104
			c2.091-0.091,4.075-0.916,5.69-2.219h-5.336c-1.249,0.326-2.554,0.469-3.751,0.469c-0.531,0-0.799-0.057-1.223-0.16v-0.309h-3.236
			v18.458H82.936z"/>
		<polygon fill="#FFFFFF" points="117.495,51.663 117.495,36.376 124.075,36.376 124.075,33.205 108.896,33.205 108.896,51.663 		
			"/>
		<path fill="#FFFFFF" d="M140.223,51.663V34.097h0.104l10.824,17.566h3.824l-10.189-16.136v-0.104
			c2.092-0.091,4.075-0.916,5.691-2.219h-5.336c-1.249,0.326-2.554,0.469-3.75,0.469c-0.532,0-0.799-0.057-1.223-0.16v-0.309h-3.237
			v18.458H140.223z"/>
		<path fill="#FFFFFF" d="M177.278,52.19c8.016,0,10.984-8.538,10.984-18.785c0-0.069-0.009-0.132-0.009-0.2h-3.392
			c0,0.049,0.004,0.099,0.004,0.148c0,7.802-1.378,15.977-7.588,15.977c-6.153,0-7.587-8.175-7.587-15.977
			c0-0.05,0.004-0.1,0.004-0.148h-3.392c0,0.068-0.009,0.131-0.009,0.2C166.295,43.652,169.268,52.19,177.278,52.19z"/>
		<polygon fill="#FFFFFF" points="226.325,51.663 229.562,51.663 227.656,33.205 224.727,33.205 		"/>
		<path fill="#FFFFFF" d="M213.375,51.663h2.602l4.273-18.458h-2.454l-2.031,8.9c-0.588,2.445-0.903,4.623-0.903,4.623h-0.108
			c0,0-0.315-2.178-0.903-4.675l-2.061-8.849h-2.731L213.375,51.663z"/>
		<polygon fill="#FFFFFF" points="203.027,51.663 204.591,33.205 201.855,33.205 199.95,51.663 		"/>
		<polygon fill="#FFFFFF" points="245.769,51.663 247.256,45.398 255.643,45.398 257.124,51.663 265.883,51.663 260.97,33.205 
			253.123,33.205 254.472,39.721 248.479,39.721 249.969,33.205 243.436,33.205 238.445,51.663 		"/>
		<polygon fill="#FFFFFF" points="289.57,51.663 289.57,49.011 279.696,49.011 279.696,33.205 276.301,33.205 276.301,51.663 		"/>
		<polygon fill="#FFFFFF" points="301.413,51.663 304.706,39.564 315.478,39.564 318.715,51.663 322.162,51.663 316.796,33.205 
			313.775,33.205 314.787,37.067 305.393,37.067 306.435,33.205 303.596,33.205 298.177,51.663 		"/>
		<path fill="#FFFFFF" d="M344.838,43.169c0,3.819-2.597,5.997-5.992,5.997c-2.869,0-4.671-0.95-5.838-1.91l-1.011,2.817
			c1.646,1.322,3.876,2.117,7.164,2.117c5.521,0,9.182-3.871,9.182-9.652c0-3.872-2.078-6.646-5.207-9.333h-5.293
			c0.312,0.261,0.558,0.524,0.895,0.784C342.929,37.171,344.838,39.349,344.838,43.169z"/>
		<polygon fill="#FFFFFF" points="376.108,51.663 379.933,51.663 368.607,33.205 365.371,33.205 		"/>
		<rect x="361.569" y="33.205" fill="#FFFFFF" width="3.292" height="18.458"/>
		<polygon fill="#FFFFFF" points="390.285,51.663 393.578,39.564 404.35,39.564 407.586,51.663 411.034,51.663 405.668,33.205 
			402.647,33.205 403.659,37.067 394.266,37.067 395.307,33.205 392.468,33.205 387.049,51.663 		"/>
	</g>
</g>
</svg>
