<?xml version="1.0" encoding="utf-8"?>
<!-- Generator: Adobe Illustrator 16.0.0, SVG Export Plug-In . SVG Version: 6.00 Build 0)  -->
<!DOCTYPE svg PUBLIC "-//W3C//DTD SVG 1.1//EN" "http://www.w3.org/Graphics/SVG/1.1/DTD/svg11.dtd">
<svg version="1.1" id="Layer_1" xmlns="http://www.w3.org/2000/svg" xmlns:xlink="http://www.w3.org/1999/xlink" x="0px" y="0px"
	 width="800px" height="164px" viewBox="0 0 800 164" enable-background="new 0 0 800 164" xml:space="preserve">
<g>
	<path fill="#FFFFFF" d="M30.587,50.449c0-11.129,2.361-40.97,42.32-40.97c35.913,0,41.476,24.109,42.15,37.092
		c0.168,2.36-1.349,4.215-3.709,4.722l-18.714,4.213c-3.541,0.675-6.239-1.685-6.745-5.225c-0.843-7.419-3.877-11.802-12.982-11.802
		c-12.477,0-13.32,7.923-13.32,20.906v34.963c0,12.982,0.843,20.906,13.32,20.906c9.273,0,11.802-4.383,12.814-12.139
		c0.506-3.542,3.203-5.733,6.575-4.891l19.052,4.216c2.361,0.507,3.877,2.36,3.709,4.89c-0.674,12.813-6.238,36.924-42.15,36.924
		c-39.959,0-42.32-29.844-42.32-40.971V50.449z"/>
	<path fill="#FFFFFF" d="M144.889,23.198c3.204,0,5.058,1.853,5.058,5.057v42.15c0,3.204,1.855,5.059,5.059,5.059h16.186
		c3.372,0,5.058-1.855,5.058-5.059v-42.15c0-3.204,1.855-5.057,5.058-5.057h18.884c3.372,0,5.058,1.685,5.058,5.057V136.16
		c0,3.203-1.686,5.059-5.058,5.059h-18.884c-3.203,0-5.058-1.855-5.058-5.059v-26.638c0-3.372-1.686-5.059-5.058-5.059h-16.186
		c-3.203,0-5.059,1.687-5.059,5.059v26.638c0,3.203-1.686,5.059-5.058,5.059h-18.883c-3.204,0-5.058-1.855-5.058-5.059V28.255
		c0-3.372,1.686-5.057,5.058-5.057H144.889z"/>
	<path fill="#FFFFFF" d="M290.488,23.198c3.373,0,5.059,1.685,5.059,5.057v18.884c0,3.204-1.686,5.059-5.059,5.059h-40.801
		c-3.204,0-5.059,1.685-5.059,5.057v5.395c0,3.204,1.855,5.059,5.059,5.059h26.133c3.372,0,5.058,1.685,5.058,5.059V91.65
		c0,3.203-1.686,5.059-5.058,5.059h-26.133c-3.204,0-5.059,1.685-5.059,5.057v5.395c0,3.203,1.855,5.059,5.059,5.059h40.801
		c3.373,0,5.059,1.688,5.059,5.059v18.883c0,3.372-1.686,5.059-5.059,5.059h-70.813c-3.203,0-5.058-1.855-5.058-5.059V28.255
		c0-3.372,1.854-5.057,5.058-5.057H290.488z"/>
	<path fill="#FFFFFF" d="M346.192,23.198c31.697,0,42.15,12.812,42.15,40.463v36.923c0,27.651-10.454,40.634-42.15,40.634h-37.599
		c-3.203,0-5.058-1.855-5.058-5.059V28.423c0-3.372,1.686-5.057,5.058-5.225H346.192z M346.698,112.219
		c8.093,0,12.139-1.348,12.139-11.465c0-0.169,0-36.924,0-37.092c0-10.454-4.046-11.464-12.139-11.464h-9.104
		c-3.204,0-5.059,1.685-5.059,5.057v49.905c0,3.203,1.855,5.059,5.059,5.059H346.698z"/>
	<path fill="#FFFFFF" d="M437.432,23.198c31.696,0,42.15,12.812,42.15,40.463v36.923c0,27.651-10.454,40.634-42.15,40.634h-37.599
		c-3.203,0-5.058-1.855-5.058-5.059V28.423c0-3.372,1.686-5.057,5.058-5.225H437.432z M437.938,112.219
		c8.093,0,12.139-1.348,12.139-11.465c0-0.169,0-36.924,0-37.092c0-10.454-4.046-11.464-12.139-11.464h-9.105
		c-3.203,0-5.059,1.685-5.059,5.057v49.905c0,3.203,1.855,5.059,5.059,5.059H437.938z"/>
	<path fill="#FFFFFF" d="M569.035,135.486c0,3.709-1.686,5.732-5.058,5.732h-18.884c-3.203,0-5.059-1.687-5.059-5.059v-9.047
		c0-3.372-1.686-5.059-5.058-5.059h-14.5c-3.203,0-5.058,1.687-5.058,5.059v9.047c0,3.372-1.686,5.059-5.059,5.059h-18.883
		c-3.203,0-5.059-2.023-5.059-5.732V63.998c0-21.242,3.372-43.835,41.309-43.835c37.935,0,41.307,22.593,41.307,43.835V135.486z
		 M540.035,63.998c0-8.092-1.18-12.139-12.307-12.139c-11.129,0-12.309,4.047-12.309,12.139v23.998c0,3.203,1.854,5.059,5.058,5.059
		h14.5c3.372-0.168,5.058-1.855,5.058-5.227V63.998z"/>
	<path fill="#FFFFFF" d="M674.124,147.174c2.36,4.384-0.337,9.104-5.565,9.104h-19.221c-1.686,0-3.202-0.844-3.877-2.359
		l-25.244-48.949c-0.337-0.505-0.843-0.842-1.349-0.842h-6.744c-3.035,0-5.227,2.191-5.227,5.225v26.641
		c0,3.035-2.192,5.227-5.228,5.227h-18.883c-3.034,0-5.227-2.191-5.227-5.227V28.423c0-3.034,2.192-5.225,5.227-5.225h36.924
		c30.011,0,42.151,12.812,42.151,40.463c0,15.68-3.879,26.639-12.813,33.047c-0.676,0.504-0.844,1.348-0.507,2.191L674.124,147.174z
		 M612.124,52.198c-3.035,0-5.227,2.192-5.227,5.225V69.9c0,3.035,2.191,5.227,5.227,5.227h8.599
		c8.093,0,12.139-1.012,12.139-11.466c0-10.454-4.046-11.464-12.139-11.464H612.124z"/>
	<path fill="#FFFFFF" d="M730.11,65.01c-3.374,0.675-5.061-0.841-5.565-4.215c-1.18-6.912-6.745-11.295-14.669-11.295
		c-6.575,0-10.622,3.878-9.946,7.755c2.359,13.15,55.637,12.814,55.637,51.593c0,5.059-5.73,34.899-45.69,34.899
		c-35.406,0-42.993-23.267-43.835-36.417c-0.168-3.035,1.347-4.89,4.384-5.564l19.051-4.214c3.372-0.675,5.227,0.842,5.563,4.384
		c0.675,8.092,6.914,12.813,14.837,12.813c8.263,0,14.331-4.889,13.319-9.441c-3.203-14.332-53.953-11.129-53.953-49.907
		c-0.168-5.057,2.867-34.9,40.634-34.9c34.731,0,42.825,22.593,43.839,34.732c0.168,3.035-1.351,4.89-4.384,5.563L730.11,65.01z"/>
</g>
</svg>
