<svg xmlns="http://www.w3.org/2000/svg" width="100" height="100" viewBox="0 0 100 100"><g fill="#FFF"><path d="M38.523 64.38l-1.533 9.11c-.21 1.246.3 2.503 1.32 3.246 1.022.744 2.378.842 3.493.258l8.195-4.275 8.19 4.274c.484.253 1.017.377 1.542.377.688 0 1.375-.213 1.955-.634 1.02-.743 1.532-2 1.32-3.245l-1.53-9.11 6.6-6.472c.9-.885 1.22-2.202.835-3.4-.39-1.2-1.43-2.082-2.678-2.263L57.09 50.89l-4.116-8.277c-.56-1.13-1.718-1.845-2.98-1.845-1.26 0-2.416.715-2.978 1.845l-4.113 8.276-9.143 1.353c-1.25.183-2.285 1.063-2.675 2.262-.39 1.2-.068 2.52.835 3.4l6.603 6.475z"/><path d="M89.286 10.63H78.818V4.825C78.818 2.16 76.658 0 73.994 0h-.766c-2.664 0-4.824 2.16-4.824 4.825v5.806H31.472V4.826C31.472 2.16 29.312 0 26.647 0h-.766c-2.663 0-4.823 2.16-4.823 4.825v5.806H10.712c-5.474 0-9.93 4.456-9.93 9.933V90.07c0 5.473 4.456 9.93 9.93 9.93h78.574c5.476 0 9.93-4.457 9.93-9.93V20.562c0-5.477-4.454-9.932-9.93-9.932zM87.99 88.77H12.008V34.666H87.99V88.77z"/></g></svg>