<svg xmlns="http://www.w3.org/2000/svg" width="100" height="100" viewBox="0 0 100 100"><path fill="#FFF" d="M86.932 0H13.068C5.86 0 0 5.862 0 13.068v73.864C0 94.14 5.86 100 13.068 100h73.864C94.14 100 100 94.14 100 86.932V13.068C100 5.862 94.14 0 86.932 0zM71.584 60.954c0 4.335-4.363 8.375-9.748 9.026-5.377.656-9.743-2.088-9.743-6.422 0-4.33 4.366-8.373 9.743-9.025 3.665-.446 5.707.732 5.707.732v-.016-16.41c0-2.055-2.218-1.31-2.218-1.31L45.25 43.824s-2.306.823-2.306 2.743v20.45c0 4.33-3.948 8.333-9.333 9.097-5.377.76-9.74-1.895-9.74-6.225 0-4.335 4.363-8.464 9.74-9.228 3.665-.52 5.31.59 5.31.59V37.31c0-2.75 2.23-5.62 4.98-6.405l22.704-6.945c2.75-.785 4.98.81 4.98 3.56v33.436z"/></svg>