<svg xmlns="http://www.w3.org/2000/svg" width="100" height="100" viewBox="0 0 100 100"><path fill="#FFF" d="M87.393 0H12.61C5.646 0 0 5.646 0 12.61v74.777C0 94.354 5.646 100 12.61 100h74.783C94.353 100 100 94.354 100 87.39V12.61C100 5.645 94.354 0 87.393 0zM50 35.35c8.08 0 14.652 6.573 14.652 14.65 0 8.082-6.572 14.652-14.65 14.652-8.08 0-14.652-6.57-14.652-14.65S41.923 35.35 50 35.35zm38.373 46.71c0 3.482-3.24 6.314-6.723 6.314H18.596c-3.484 0-6.968-2.83-6.968-6.313V50.534c0-3.48 3.483-6.347 6.968-6.347h3.514c.663 0 1.294.287 1.733.783.437.5.642 1.162.556 1.817-.14 1.053-.213 2.124-.213 3.213 0 14.232 11.58 25.813 25.814 25.813S75.815 64.233 75.815 50c0-1.09-.074-2.16-.21-3.213-.09-.657.116-1.318.552-1.82.44-.498 1.07-.783 1.736-.783h3.762c3.48 0 6.72 2.865 6.72 6.35V82.06zm.002-58.135c-.002 3.484-2.825 6.308-6.307 6.308h-5.992c-3.484 0-6.31-2.823-6.31-6.308v-5.992c0-3.48 2.824-6.305 6.31-6.305h5.992c3.48 0 6.307 2.823 6.307 6.305v5.992z"/></svg>