<svg xmlns="http://www.w3.org/2000/svg" viewBox="0 0 100 100"><path fill="#868686" d="M85.965.38L42.71 13.615c-5.24 1.496-9.49 6.96-9.49 12.203v45.626s-3.132-2.112-10.113-1.125c-10.25 1.457-18.56 9.322-18.56 17.58 0 8.252 8.31 13.31 18.56 11.855 10.258-1.452 17.78-9.08 17.78-17.334V43.46c0-3.66 4.395-5.228 4.395-5.228l38.247-11.99s4.228-1.42 4.228 2.498V60.03s-3.895-2.242-10.873-1.395c-10.25 1.243-18.566 8.95-18.566 17.197 0 8.26 8.315 13.486 18.565 12.238 10.256-1.243 18.568-8.94 18.568-17.2V7.164c0-5.242-4.248-8.278-9.488-6.783z"/></svg>
