<svg version="1.1" id="Camada_1" xmlns="http://www.w3.org/2000/svg" xmlns:xlink="http://www.w3.org/1999/xlink" x="0px" y="0px"
	 width="100px" height="100px" viewBox="0 0 100 100" enable-background="new 0 0 100 100" xml:space="preserve">
<path fill="#868686" d="M99.906,60.082l-1.897-8.251c-0.035,0.009-0.071,0.019-0.105,0.027c-6.543,1.505-13.066-2.582-14.568-9.125
	c-1.505-6.542,2.58-13.064,9.122-14.567c0.037-0.009,0.073-0.014,0.107-0.022l-1.896-8.25c-0.456-1.988-2.438-3.229-4.427-2.772
	l-22.859,5.254l1.643,7.143l-5.424,1.245l-1.641-7.141L2.867,36.286c-1.987,0.455-3.23,2.437-2.771,4.426l9.236,40.188
	c0.456,1.987,2.439,3.229,4.426,2.771L68.85,71.008l-1.621-7.053l5.425-1.246l1.62,7.054l22.859-5.254
	C99.119,64.05,100.361,62.068,99.906,60.082z M48.064,45.963l-4.235,6.547c-0.502,0.777-0.622,2.109-0.268,2.964l2.994,7.2
	c0.354,0.853-0.086,1.356-0.979,1.12L38.04,61.79c-0.893-0.237-2.198,0.061-2.899,0.661l-5.924,5.073
	c-0.701,0.601-1.317,0.337-1.367-0.587l-0.424-7.786c-0.049-0.922-0.736-2.072-1.524-2.554l-6.654-4.065
	c-0.79-0.482-0.728-1.148,0.134-1.481l7.274-2.809c0.862-0.333,1.743-1.34,1.957-2.24l1.811-7.583
	c0.214-0.899,0.868-1.048,1.45-0.332l4.919,6.051c0.583,0.717,1.814,1.244,2.735,1.17l7.773-0.622
	C48.222,44.613,48.565,45.188,48.064,45.963z M60.948,36.067l5.423-1.246l2.132,9.268l-5.426,1.246L60.948,36.067z M66.08,58.958
	l-1.965-8.547l5.423-1.246l1.966,8.547L66.08,58.958z"/>
</svg>
