<svg xmlns="http://www.w3.org/2000/svg" width="100" height="100" viewBox="0 0 100 100"><path fill="#868686" d="M99.906 60.082l-1.897-8.25-.106.026c-6.543 1.505-13.066-2.582-14.568-9.125-1.505-6.542 2.58-13.064 9.122-14.567.037-.01.073-.014.107-.022l-1.896-8.25c-.457-1.988-2.44-3.23-4.428-2.772l-22.86 5.254 1.644 7.143-5.424 1.244-1.64-7.14L2.866 36.285c-1.987.455-3.23 2.437-2.77 4.426L9.33 80.9c.456 1.987 2.44 3.23 4.426 2.77L68.85 71.01l-1.62-7.053 5.424-1.246 1.62 7.053 22.86-5.254c1.985-.46 3.227-2.442 2.772-4.428zm-51.842-14.12L43.83 52.51c-.503.777-.623 2.11-.27 2.964l2.995 7.2c.354.853-.086 1.356-.98 1.12L38.04 61.79c-.893-.237-2.198.06-2.9.66l-5.923 5.074c-.7.6-1.317.337-1.367-.587l-.424-7.786c-.05-.92-.736-2.07-1.524-2.553l-6.654-4.065c-.79-.482-.728-1.148.134-1.48l7.274-2.81c.862-.333 1.743-1.34 1.957-2.24l1.81-7.583c.215-.9.87-1.05 1.45-.333l4.92 6.05c.583.718 1.814 1.245 2.735 1.17l7.773-.62c.922-.074 1.265.5.764 1.276zm12.884-9.895l5.423-1.246 2.133 9.27-5.426 1.245-2.13-9.268zm5.132 22.89l-1.965-8.546 5.423-1.245 1.966 8.547-5.424 1.246z"/></svg>