<svg xmlns="http://www.w3.org/2000/svg" width="100" height="100" viewBox="0 0 100 100"><g fill="#FFF"><path d="M100 25.283c0 2.422-1.94 4.403-4.316 4.403h-64.75c-2.373 0-4.315-1.98-4.315-4.403V16.87c0-2.422 1.94-4.403 4.315-4.403h64.75c2.374 0 4.315 1.98 4.315 4.403v8.413zM100 54.205c0 2.423-1.94 4.402-4.316 4.402h-64.75c-2.373 0-4.315-1.98-4.315-4.402v-8.41c0-2.424 1.94-4.404 4.315-4.404h64.75c2.374 0 4.315 1.98 4.315 4.404v8.41zM100 83.13c0 2.42-1.94 4.4-4.316 4.4h-64.75c-2.373 0-4.315-1.98-4.315-4.4v-8.415c0-2.42 1.94-4.402 4.315-4.402h64.75c2.374 0 4.315 1.98 4.315 4.402v8.414zM18.278 25.283c0 2.422-1.942 4.403-4.316 4.403H4.316C1.942 29.686 0 27.706 0 25.283V16.87c0-2.422 1.942-4.403 4.316-4.403h9.645c2.376 0 4.317 1.98 4.317 4.403v8.413zM18.278 54.205c0 2.423-1.942 4.402-4.316 4.402H4.316C1.942 58.607 0 56.627 0 54.205v-8.41c0-2.424 1.942-4.404 4.316-4.404h9.645c2.376 0 4.317 1.98 4.317 4.404v8.41zM18.278 83.13c0 2.42-1.942 4.4-4.316 4.4H4.316C1.942 87.53 0 85.55 0 83.13v-8.415c0-2.42 1.942-4.402 4.316-4.402h9.645c2.376 0 4.317 1.98 4.317 4.402v8.414z"/></g></svg>