<svg xmlns="http://www.w3.org/2000/svg" width="100" height="100" viewBox="0 0 100 100"><path fill="#FFF" d="M100 18.992c-3.68 1.63-7.628 2.737-11.777 3.232 4.233-2.54 7.48-6.563 9.02-11.346-3.975 2.353-8.36 4.06-13.036 4.983-3.74-3.993-9.067-6.48-14.97-6.48-11.334 0-20.517 9.187-20.517 20.51 0 1.607.183 3.175.532 4.674-17.047-.854-32.17-9.024-42.29-21.432-1.763 3.023-2.768 6.546-2.768 10.31 0 7.12 3.624 13.4 9.123 17.073-3.36-.114-6.525-1.037-9.295-2.575v.254c0 9.94 7.08 18.226 16.452 20.12-1.715.464-3.526.72-5.4.72-1.322 0-2.606-.135-3.86-.38 2.61 8.155 10.183 14.088 19.16 14.25-7.02 5.5-15.865 8.772-25.48 8.772-1.653 0-3.29-.1-4.895-.283 9.08 5.828 19.857 9.228 31.447 9.228 37.733 0 58.366-31.258 58.366-58.363l-.066-2.66c4.023-2.88 7.507-6.495 10.253-10.605z"/></svg>