<svg xmlns="http://www.w3.org/2000/svg" width="100" height="100" viewBox="0 0 100 100"><path fill="#FFF" d="M86.14 13.75c-1.413-.35-2.885-.557-4.405-.557H18.248c-1.5 0-2.95.2-4.346.54l-.18.005c-2.628.67-5.017 1.92-7.047 3.59l-.103.085c-.392.33-.772.674-1.136 1.034-.058.058-.116.114-.173.173-.348.353-.68.72-1 1.1-.046.055-.096.11-.142.165-.723.886-1.37 1.837-1.918 2.85-.005.01-.01.02-.016.028-.254.472-.484.957-.697 1.45-.06.133-.107.267-.16.4-.154.382-.298.77-.426 1.163-.055.17-.106.34-.157.514-.11.373-.205.75-.292 1.135-.04.18-.082.36-.118.546-.076.404-.137.814-.186 1.226-.02.163-.047.323-.062.488-.054.573-.088 1.153-.088 1.74v37.153c0 .587.034 1.167.088 1.74.016.165.042.325.063.487.05.412.11.82.187 1.225.036.185.078.364.118.546.087.383.183.76.292 1.135.05.173.103.345.157.515.128.396.27.78.425 1.164.053.132.102.267.16.396.212.495.442.98.696 1.45l.016.03c.55 1.013 1.195 1.964 1.92 2.85.045.056.095.11.142.165.318.382.65.747 1 1.1.056.06.114.116.172.175.364.36.744.703 1.138 1.032l.103.087c2.03 1.668 4.42 2.92 7.046 3.59l.18.004c1.397.34 2.847.54 4.347.54h63.484c1.52 0 2.992-.206 4.406-.557C94.09 84.28 100 77.14 100 68.58V31.422c0-8.56-5.91-15.704-13.86-17.672zM36.19 68.796V31.498l32.3 18.65-32.3 18.648z"/></svg>