<?xml version="1.0" encoding="utf-8"?>
<!-- Generator: Adobe Illustrator 16.0.0, SVG Export Plug-In . SVG Version: 6.00 Build 0)  -->
<!DOCTYPE svg PUBLIC "-//W3C//DTD SVG 1.1//EN" "http://www.w3.org/Graphics/SVG/1.1/DTD/svg11.dtd">
<svg version="1.1" id="Camada_1" xmlns="http://www.w3.org/2000/svg" xmlns:xlink="http://www.w3.org/1999/xlink" x="0px" y="0px"
	 width="458.949px" height="317.305px" viewBox="0 0 458.949 317.305" enable-background="new 0 0 458.949 317.305"
	 xml:space="preserve">
<g>
	<polygon fill="#FFFFFF" points="331.402,0 265.594,0 219.761,317.305 236.436,317.305 285.57,317.305 302.243,317.305 
		311.198,255.31 294.523,255.31 	"/>
	<polygon fill="#FFFFFF" points="458.949,85.789 430.652,85.789 438.456,31.783 370.009,50.031 331.402,317.305 397.21,317.305 
		421.697,147.782 449.996,147.782 	"/>
	<polygon fill="#FFFFFF" points="219.761,0 153.951,0 144.7,64.047 210.508,64.047 	"/>
	<polygon fill="#FFFFFF" points="141.561,85.789 117.284,253.844 74.975,253.844 111.641,0 100.2,0 63.437,253.844 60.113,253.844 
		59.876,253.81 96.637,0 45.831,0 0,317.305 58.169,317.305 65.809,317.305 108.119,317.305 150.423,317.305 173.928,317.305 
		207.369,85.789 	"/>
</g>
</svg>
