<?xml version="1.0" encoding="utf-8"?>
<!-- Generator: Adobe Illustrator 16.0.0, SVG Export Plug-In . SVG Version: 6.00 Build 0)  -->
<!DOCTYPE svg PUBLIC "-//W3C//DTD SVG 1.1//EN" "http://www.w3.org/Graphics/SVG/1.1/DTD/svg11.dtd">
<svg version="1.1" id="Modo_de_isolamento" xmlns="http://www.w3.org/2000/svg" xmlns:xlink="http://www.w3.org/1999/xlink" x="0px"
	 y="0px" width="163px" height="40px" viewBox="0 0 163 40" enable-background="new 0 0 163 40" xml:space="preserve">
<g>
	<rect x="11.018" y="33.224" fill="#ED1C24" width="9.396" height="2.883"/>
	<rect x="11.018" y="29.477" fill="#ED1C24" width="9.396" height="2.883"/>
	<rect x="11.018" y="25.729" fill="#ED1C24" width="9.396" height="2.883"/>
	<rect x="11.018" y="21.982" fill="#F69679" width="9.396" height="2.882"/>
	<rect x="11.018" y="18.234" fill="#F69679" width="9.396" height="2.882"/>
	<rect x="21.554" y="33.224" fill="#FFF200" width="9.397" height="2.883"/>
	<rect x="21.554" y="29.477" fill="#FFF200" width="9.397" height="2.883"/>
	<rect x="21.554" y="25.729" fill="#FFF200" width="9.397" height="2.883"/>
	<rect x="32.09" y="33.224" fill="#EC008C" width="9.396" height="2.883"/>
	<rect x="32.09" y="29.477" fill="#EC008C" width="9.396" height="2.883"/>
	<rect x="32.09" y="25.729" fill="#EC008C" width="9.396" height="2.883"/>
	<rect x="32.09" y="21.982" fill="#F49AC1" width="9.396" height="2.882"/>
	<rect x="32.09" y="18.234" fill="#F49AC1" width="9.396" height="2.882"/>
	<rect x="32.09" y="14.486" fill="#F49AC1" width="9.396" height="2.883"/>
	<rect x="32.09" y="10.739" fill="#F49AC1" width="9.396" height="2.883"/>
	<rect x="42.625" y="33.224" fill="#BFD730" width="9.397" height="2.883"/>
	<rect x="42.625" y="29.477" fill="#BFD730" width="9.397" height="2.883"/>
	<rect x="42.625" y="25.729" fill="#BFD730" width="9.397" height="2.883"/>
	<rect x="42.625" y="21.982" fill="#DDE89A" width="9.397" height="2.882"/>
	<rect x="42.625" y="18.234" fill="#DDE89A" width="9.397" height="2.882"/>
	<rect x="53.161" y="33.224" fill="#20C4F4" width="9.397" height="2.883"/>
	<rect x="53.161" y="29.477" fill="#20C4F4" width="9.397" height="2.883"/>
	<rect x="53.161" y="25.729" fill="#20C4F4" width="9.397" height="2.883"/>
	<rect x="53.161" y="21.981" fill="#ABE1FA" width="9.397" height="2.883"/>
	<rect x="53.161" y="18.233" fill="#ABE1FA" width="9.397" height="2.883"/>
	<rect x="53.161" y="14.486" fill="#ABE1FA" width="9.397" height="2.882"/>
	<rect x="53.161" y="10.738" fill="#ABE1FA" width="9.397" height="2.882"/>
	<rect x="53.161" y="6.99" fill="#ABE1FA" width="9.397" height="2.883"/>
	<g>
		<path fill="#FFFFFF" d="M66.259,4.108h7.045c7.092,0,7.761,2.513,7.761,11.82v9.512c0,8.199-1.628,10.666-8.543,10.666h-6.264
			V4.108z M70.529,32.383h2.207c3.24,0,3.771-1.729,3.771-7.225V14.169c0-4.743-0.401-6.338-4.12-6.338h-1.858V32.383z"/>
		<path fill="#FFFFFF" d="M82.772,4.108h11.96v3.804h-7.689v10.033h7.119v3.748h-7.119v10.612h7.689v3.801h-11.96V4.108z"/>
		<path fill="#FFFFFF" d="M96.441,4.108H108.4v3.804h-7.688v10.033h7.119v3.748h-7.119v10.612h7.688v3.801H96.441V4.108z"/>
		<path fill="#FFFFFF" d="M125.769,4.108h11.958v3.804h-7.688v10.033h7.12v3.748h-7.12v10.612h7.688v3.801h-11.958V4.108z"/>
		<path fill="#FFFFFF" d="M110.108,32.36l9.84-24.503h-9.84V4.11h13.952v3.747l-9.671,24.503h9.671v3.748l-13.952-0.002V32.36z"/>
		<path fill="#FFFFFF" d="M139.438,4.11h6.833c6.392,0,6.84,1.648,6.84,8.651c0,4.297-0.4,6.398-3.991,7.506l0,0
			c2.977,0.31,3.997,1.883,3.997,4.895v6.958c0,1.154,0.008,2.656,0.274,3.986h-4.271c-0.439-0.799-0.282-1.584-0.282-2.87v-7.223
			c0-3.015-0.565-3.743-3.455-3.743h-1.674v13.838l-4.271-0.002V4.11z M143.708,18.234h1.324c3.459,0,3.987-0.432,3.987-5.218
			c0-4.743-0.42-5.161-3.131-5.161h-2.181V18.234z"/>
	</g>
</g>
</svg>
