<?xml version="1.0" encoding="utf-8"?>
<!-- Generator: Adobe Illustrator 16.0.0, SVG Export Plug-In . SVG Version: 6.00 Build 0)  -->
<!DOCTYPE svg PUBLIC "-//W3C//DTD SVG 1.1//EN" "http://www.w3.org/Graphics/SVG/1.1/DTD/svg11.dtd">
<svg version="1.1" id="Camada_1" xmlns="http://www.w3.org/2000/svg" xmlns:xlink="http://www.w3.org/1999/xlink" x="0px" y="0px"
	 width="100px" height="100px" viewBox="0 0 100 100" enable-background="new 0 0 100 100" xml:space="preserve">
<g>
	<path fill="#FFFFFF" d="M38.523,64.38l-1.533,9.111c-0.211,1.245,0.301,2.502,1.321,3.245c1.021,0.744,2.377,0.842,3.492,0.258
		l8.195-4.275l8.191,4.275c0.483,0.253,1.016,0.377,1.541,0.377c0.688,0,1.375-0.214,1.955-0.635c1.021-0.743,1.532-2,1.321-3.245
		l-1.53-9.111l6.598-6.472c0.9-0.885,1.222-2.202,0.836-3.401c-0.389-1.2-1.43-2.081-2.678-2.262l-9.143-1.356l-4.115-8.276
		c-0.56-1.13-1.718-1.845-2.979-1.845c-1.26,0-2.417,0.715-2.979,1.845l-4.113,8.276l-9.143,1.354
		c-1.249,0.183-2.285,1.063-2.675,2.262c-0.389,1.201-0.068,2.521,0.835,3.401L38.523,64.38z"/>
	<path fill="#FFFFFF" d="M89.286,10.63H78.818V4.825C78.818,2.16,76.658,0,73.994,0h-0.766c-2.664,0-4.824,2.16-4.824,4.825v5.806
		H31.472V4.825C31.472,2.16,29.312,0,26.647,0h-0.766c-2.664,0-4.824,2.16-4.824,4.825v5.806H10.712
		c-5.474,0-9.929,4.455-9.929,9.932V90.07c0,5.473,4.455,9.93,9.929,9.93h78.574c5.476,0,9.931-4.457,9.931-9.93V20.562
		C99.217,15.085,94.762,10.63,89.286,10.63z M87.99,88.771H12.008V34.665H87.99V88.771z"/>
</g>
</svg>
