<?xml version="1.0" encoding="utf-8"?>
<!-- Generator: Adobe Illustrator 16.0.0, SVG Export Plug-In . SVG Version: 6.00 Build 0)  -->
<!DOCTYPE svg PUBLIC "-//W3C//DTD SVG 1.1//EN" "http://www.w3.org/Graphics/SVG/1.1/DTD/svg11.dtd">
<svg version="1.1" id="Camada_1" xmlns="http://www.w3.org/2000/svg" xmlns:xlink="http://www.w3.org/1999/xlink" x="0px" y="0px"
	 width="100px" height="100px" viewBox="0 0 100 100" enable-background="new 0 0 100 100" xml:space="preserve">
<path fill="#FFFFFF" d="M86.932,0H13.068C5.861,0,0,5.862,0,13.068v73.864C0,94.139,5.861,100,13.068,100h73.864
	C94.139,100,100,94.139,100,86.932V13.068C100,5.862,94.139,0,86.932,0z M71.584,60.954c0,4.335-4.363,8.375-9.748,9.026
	c-5.377,0.656-9.743-2.088-9.743-6.422c0-4.33,4.366-8.373,9.743-9.025c3.665-0.446,5.707,0.732,5.707,0.732
	c0-0.012,0-0.016,0-0.016s0-14.354,0-16.409c0-2.055-2.218-1.31-2.218-1.31L45.25,43.824c0,0-2.306,0.823-2.306,2.743
	s0,20.449,0,20.449c0,4.33-3.948,8.334-9.333,9.098c-5.378,0.761-9.741-1.895-9.741-6.225c0-4.334,4.363-8.463,9.741-9.227
	c3.664-0.52,5.31,0.591,5.31,0.591c0-0.009,0-0.331,0-0.331V37.308c0-2.751,2.23-5.62,4.98-6.405l22.703-6.945
	c2.75-0.785,4.979,0.809,4.979,3.56L71.584,60.954L71.584,60.954z"/>
</svg>
