<?xml version="1.0" encoding="utf-8"?>
<!-- Generator: Adobe Illustrator 16.0.0, SVG Export Plug-In . SVG Version: 6.00 Build 0)  -->
<!DOCTYPE svg PUBLIC "-//W3C//DTD SVG 1.1//EN" "http://www.w3.org/Graphics/SVG/1.1/DTD/svg11.dtd">
<svg version="1.1" id="Camada_1" xmlns="http://www.w3.org/2000/svg" xmlns:xlink="http://www.w3.org/1999/xlink" x="0px" y="0px"
	 width="300px" height="300px" viewBox="0 0 300 300" enable-background="new 0 0 300 300" xml:space="preserve">
<g>
	<path id="Facebook__x28_alt_x29_" fill="#FFFFFF" d="M298.189,51.654c0-25.972-23.445-49.427-49.42-49.427H51.088
		c-25.975,0-49.42,23.455-49.42,49.427v197.675c0,25.965,23.446,49.42,49.423,49.42h98.837v-112.02h-36.242v-49.42h36.242v-19.253
		c0-33.204,24.936-63.114,55.598-63.114h39.948v49.42h-39.948c-4.372,0-9.472,5.309-9.472,13.259v19.688h49.42v49.42h-49.42v112.02
		h52.715c25.975,0,49.42-23.455,49.42-49.42V51.654z"/>
</g>
</svg>
