<svg xmlns="http://www.w3.org/2000/svg" viewBox="0 0 100 100"><path fill="#868686" d="M0 23.996v37.14c0 8.518 5.83 15.67 13.72 17.686l9.02 12.814c1.157 1.645 3.047 2.616 5.057 2.612s3.894-.993 5.045-2.645l8.526-12.238h40.366c10.08 0 18.267-8.146 18.267-18.23v-37.14c0-10.082-8.183-18.243-18.266-18.243H18.248C8.162 5.752-.002 13.912 0 23.996zm60.337 18.568c0-3.273 2.665-5.934 5.954-5.934s5.957 2.66 5.957 5.934c0 3.28-2.667 5.936-5.956 5.936s-5.953-2.654-5.953-5.936zm-16.302 0c0-3.273 2.664-5.934 5.954-5.934s5.955 2.66 5.955 5.934c0 3.28-2.666 5.936-5.956 5.936s-5.955-2.654-5.955-5.936zm-16.304 0c0-3.273 2.666-5.934 5.957-5.934 3.287 0 5.956 2.66 5.956 5.934 0 3.28-2.67 5.936-5.956 5.936-3.29 0-5.956-2.654-5.956-5.936z"/></svg>
