<?xml version="1.0" encoding="utf-8"?>
<!-- Generator: Adobe Illustrator 16.0.0, SVG Export Plug-In . SVG Version: 6.00 Build 0)  -->
<!DOCTYPE svg PUBLIC "-//W3C//DTD SVG 1.1//EN" "http://www.w3.org/Graphics/SVG/1.1/DTD/svg11.dtd">
<svg version="1.1" id="Camada_1" xmlns="http://www.w3.org/2000/svg" xmlns:xlink="http://www.w3.org/1999/xlink" x="0px" y="0px"
	 width="100px" height="100px" viewBox="0 0 100 100" enable-background="new 0 0 100 100" xml:space="preserve">
<path fill="#FFFFFF" d="M79.225,0.001H55.866h-35.09H7.909v12.868v45.652v12.793c0,7.074,5.792,12.867,12.868,12.867h12.501h29.859
	l14.479,15.816l14.477-15.816V71.314V29.348V12.869C92.091,5.792,86.3,0.001,79.225,0.001z M73.602,67.023H57.245
	c0,0,0-23.591,0-28.417c0-4.827-4.288-6.437-9.115-6.437c-4.825,0-6.433,6.168-6.433,6.168v28.686H24.805V19.84l10.189-2.146
	c0,0,2.413,4.826,3.752,6.436c7.507-5.63,12.869-5.362,19.035-5.095C73.331,19.571,73.6,35.389,73.6,35.389v31.634H73.602z"/>
</svg>
