<svg xmlns="http://www.w3.org/2000/svg" width="100" height="100" viewBox="0 0 100 100"><path fill="#FFF" d="M99.904 59.686l-1.896-8.25c-.033.008-.068.02-.104.026-6.543 1.505-13.066-2.583-14.568-9.125-1.505-6.54 2.58-13.064 9.123-14.568.035-.01.07-.015.104-.023l-1.896-8.25c-.457-1.987-2.438-3.228-4.427-2.772L63.383 21.98l1.644 7.142-5.424 1.245-1.642-7.14L2.868 35.888c-1.988.455-3.23 2.437-2.772 4.425l9.237 40.19c.456 1.985 2.438 3.228 4.426 2.77L68.85 70.61l-1.62-7.052 5.423-1.246 1.62 7.054 22.86-5.255c1.986-.456 3.228-2.437 2.77-4.424zm-51.84-14.12l-4.234 6.547c-.502.777-.622 2.11-.268 2.965l2.994 7.2c.354.854-.087 1.355-.98 1.12l-7.535-2.004c-.893-.238-2.197.06-2.9.66l-5.922 5.07c-.702.602-1.317.338-1.367-.585l-.423-7.787c-.05-.923-.735-2.07-1.524-2.555l-6.653-4.064c-.79-.48-.73-1.148.133-1.482l7.275-2.808c.86-.333 1.743-1.34 1.957-2.24l1.81-7.584c.215-.898.868-1.048 1.45-.33l4.92 6.05c.583.72 1.813 1.245 2.735 1.17l7.773-.62c.92-.074 1.263.502.762 1.277zm12.883-9.896l5.424-1.245 2.133 9.267-5.425 1.246-2.13-9.268zm5.133 22.893l-1.964-8.546 5.422-1.245 1.966 8.545-5.424 1.246z"/></svg>