<?xml version="1.0" encoding="utf-8"?>
<!-- Generator: Adobe Illustrator 16.0.0, SVG Export Plug-In . SVG Version: 6.00 Build 0)  -->
<!DOCTYPE svg PUBLIC "-//W3C//DTD SVG 1.1//EN" "http://www.w3.org/Graphics/SVG/1.1/DTD/svg11.dtd">
<svg version="1.1" id="Camada_1" xmlns="http://www.w3.org/2000/svg" xmlns:xlink="http://www.w3.org/1999/xlink" x="0px" y="0px"
	 width="100px" height="100px" viewBox="0 0 100 100" enable-background="new 0 0 100 100" xml:space="preserve">
<path fill="#FFFFFF" d="M86.139,13.75c-1.412-0.351-2.884-0.557-4.404-0.557H18.248c-1.5,0-2.95,0.2-4.346,0.541l-0.181,0.004
	c-2.627,0.67-5.016,1.92-7.046,3.589c-0.034,0.028-0.068,0.058-0.103,0.086C6.18,17.742,5.8,18.087,5.436,18.447
	c-0.058,0.058-0.116,0.114-0.173,0.173c-0.348,0.353-0.681,0.719-0.999,1.099c-0.047,0.056-0.097,0.11-0.143,0.166
	c-0.724,0.886-1.37,1.837-1.919,2.849c-0.005,0.01-0.009,0.02-0.016,0.029c-0.254,0.472-0.484,0.957-0.697,1.451
	c-0.058,0.132-0.106,0.266-0.16,0.398c-0.153,0.383-0.297,0.77-0.425,1.164c-0.055,0.171-0.106,0.341-0.157,0.514
	c-0.109,0.373-0.205,0.751-0.292,1.135c-0.04,0.181-0.082,0.361-0.118,0.546c-0.076,0.403-0.137,0.813-0.186,1.225
	c-0.021,0.163-0.048,0.323-0.063,0.488C0.034,30.257,0,30.837,0,31.424v0.013v37.127v0.013c0,0.587,0.034,1.167,0.088,1.739
	c0.016,0.166,0.042,0.326,0.063,0.488c0.049,0.412,0.109,0.821,0.186,1.225c0.036,0.186,0.078,0.365,0.118,0.547
	c0.087,0.383,0.183,0.761,0.292,1.135c0.051,0.172,0.103,0.344,0.157,0.514c0.128,0.396,0.271,0.781,0.425,1.164
	c0.054,0.133,0.103,0.268,0.16,0.397c0.213,0.495,0.443,0.979,0.697,1.45c0.007,0.012,0.011,0.021,0.016,0.031
	c0.549,1.012,1.195,1.963,1.919,2.848c0.046,0.057,0.096,0.111,0.143,0.166c0.318,0.381,0.651,0.746,0.999,1.1
	c0.057,0.059,0.115,0.115,0.173,0.174c0.364,0.359,0.744,0.703,1.138,1.032c0.034,0.028,0.068,0.058,0.103,0.087
	c2.03,1.668,4.419,2.919,7.046,3.59l0.181,0.004c1.396,0.34,2.846,0.541,4.346,0.541h63.484c1.521,0,2.992-0.207,4.406-0.558
	C94.09,84.281,100,77.139,100,68.578v-0.016V31.437v-0.015C100,22.862,94.09,15.718,86.139,13.75z M36.191,68.796V31.498
	l32.3,18.649L36.191,68.796z"/>
</svg>
