<svg version="1.1" id="Camada_1" xmlns="http://www.w3.org/2000/svg" xmlns:xlink="http://www.w3.org/1999/xlink" x="0px" y="0px"
	 width="38.036px" height="33.039px" viewBox="0 0 38.036 33.039" enable-background="new 0 0 38.036 33.039" xml:space="preserve">
<g>
	<g>
		<path fill="#ADADAD" d="M19.019,33.039c-0.403,0-0.79-0.163-1.072-0.451L2.996,17.306C1.071,15.409,0,12.858,0,10.145
			S1.071,4.88,3.016,2.964C4.953,1.052,7.529,0,10.268,0s5.314,1.052,7.252,2.964c0.035,0.034,0.067,0.069,0.099,0.106l1.4,1.677
			l1.4-1.677c0.031-0.037,0.063-0.073,0.099-0.106C22.455,1.052,25.031,0,27.77,0s5.314,1.052,7.252,2.964
			c1.944,1.917,3.015,4.467,3.015,7.181s-1.07,5.264-3.014,7.18L20.091,32.587C19.809,32.875,19.422,33.039,19.019,33.039z
			 M10.268,3C8.322,3,6.495,3.746,5.121,5.1C3.754,6.449,3,8.24,3,10.145s0.754,3.696,2.121,5.045l13.897,14.204l13.878-14.185
			c1.387-1.368,2.14-3.159,2.14-5.064S34.283,6.448,32.915,5.1C31.542,3.746,29.715,3,27.77,3c-1.922,0-3.729,0.728-5.097,2.051
			L20.17,8.049c-0.57,0.683-1.732,0.683-2.303,0l-2.503-2.998C13.996,3.728,12.189,3,10.268,3z"/>
	</g>
</g>
</svg>
