<?xml version="1.0" encoding="utf-8"?>
<!-- Generator: Adobe Illustrator 16.0.0, SVG Export Plug-In . SVG Version: 6.00 Build 0)  -->
<!DOCTYPE svg PUBLIC "-//W3C//DTD SVG 1.1//EN" "http://www.w3.org/Graphics/SVG/1.1/DTD/svg11.dtd">
<svg version="1.1" id="Camada_1" xmlns="http://www.w3.org/2000/svg" xmlns:xlink="http://www.w3.org/1999/xlink" x="0px" y="0px"
	 width="465.289px" height="210.748px" viewBox="0 0 465.289 210.748" enable-background="new 0 0 465.289 210.748"
	 xml:space="preserve">
<path fill-rule="evenodd" clip-rule="evenodd" fill="#FFFFFF" d="M176.632,97.772c2.045-0.265,3.499-0.452,4.953-0.641
	c0.066,0.18,0.133,0.359,0.2,0.539c-1.452,0.546-2.903,1.091-4.843,1.82c5.059,29.426,10.096,58.722,15.132,88.018
	c0.357,0.014,0.714,0.028,1.072,0.042c7.479-48.632,14.957-97.266,22.435-145.898c0.264-0.005,0.528-0.009,0.792-0.014
	c2.182,26.493,4.365,52.985,6.547,79.479c0.336,0.016,0.673,0.032,1.01,0.049c9.501-39.026,19.004-78.053,28.505-117.079
	c0.28-0.007,0.561-0.014,0.841-0.021c13.366,50.638,26.732,101.277,40.099,151.915c0.341,0.071,0.682,0.142,1.021,0.213
	c1.662-5.037,3.355-10.063,4.979-15.114c4.499-13.984,4.487-13.964,19.395-13.729c37.807,0.597,75.614,1.17,113.421,1.749
	c1.321,0.021,2.642,0.003,3.954,0.934c-19.777,0-39.555-0.021-59.332,0.006c-22.322,0.03-44.646,0.198-66.967,0.066
	c-3.668-0.021-5.293,1.116-6.291,4.591c-2.935,10.225-6.196,20.354-9.788,32.005c-14.17-49.577-27.941-97.758-41.713-145.938
	c-0.357-0.044-0.715-0.087-1.072-0.131c-9.234,43.265-18.469,86.53-27.703,129.795c-0.304-0.02-0.608-0.04-0.913-0.061
	c-2.282-28.595-4.565-57.19-6.848-85.785c-0.31-0.01-0.62-0.02-0.929-0.029c-7.15,48.729-14.3,97.459-21.45,146.188
	c-0.207,0.003-0.414,0.006-0.621,0.009c-6.059-36.746-12.119-73.492-18.277-110.833c-8.61,2.247-16.803,4.231-24.866,6.648
	c-1.283,0.385-2.394,2.587-2.883,4.166c-2.557,8.254-4.889,16.577-7.325,24.965c-46.575,0-92.867,0-139.158,0
	C0.006,135.396,0.003,135.099,0,134.8c42.849-0.58,85.698-1.121,128.545-1.77c10.047-0.152,7.744,1.563,10.822-8.345
	c1.627-5.238,3.082-10.529,4.6-15.802c0.03-0.106-0.126-0.268-0.411-0.823c-2.36,0.492-4.855,1.013-7.351,1.534
	c-1.614-3.718-0.056-5.454,3.276-5.418c4.93,0.053,6.741-2.492,7.937-6.966c5.068-18.969,10.489-37.845,15.792-56.752
	c0.513-1.832,1.097-3.643,2.553-5.439C169.354,55.752,172.945,76.485,176.632,97.772z M165.678,47.857
	c-0.348-0.014-0.694-0.027-1.042-0.041c-5.199,17.992-10.398,35.984-15.835,54.799c8.915-1.533,16.798-2.888,25.185-4.331
	C171.142,81.021,168.41,64.438,165.678,47.857z"/>
<g>
	<path fill="#FFFFFF" d="M313.133,137.575h3.457l9.341,21.379h-3.942l-2.154-5.126h-10.037l-2.183,5.126h-3.82L313.133,137.575z
		 M318.471,150.523l-3.67-8.491l-3.639,8.491H318.471z"/>
	<path fill="#FFFFFF" d="M329.583,137.726h9.521c2.426,0,4.337,0.667,5.55,1.882c0.94,0.938,1.426,2.092,1.426,3.517v0.062
		c0,2.545-1.455,3.91-3.033,4.73c2.487,0.85,4.215,2.274,4.215,5.153v0.062c0,3.791-3.123,5.823-7.854,5.823h-9.824V137.726z
		 M342.349,143.731c0-1.67-1.334-2.699-3.729-2.699h-5.367v5.64h5.095c2.396,0,4.002-0.941,4.002-2.882V143.731z M339.165,149.825
		h-5.912v5.822h6.186c2.548,0,4.094-1,4.094-2.911v-0.06C343.532,150.887,342.108,149.825,339.165,149.825z"/>
	<path fill="#FFFFFF" d="M351.489,137.726h9.461c2.669,0,4.761,0.787,6.126,2.124c1.122,1.153,1.758,2.728,1.758,4.578v0.062
		c0,3.486-2.091,5.58-5.033,6.427l5.731,8.038h-4.428l-5.216-7.401h-4.669v7.401h-3.73V137.726z M360.677,148.25
		c2.669,0,4.366-1.396,4.366-3.549v-0.062c0-2.274-1.637-3.517-4.397-3.517h-5.427v7.127H360.677z"/>
	<path fill="#FFFFFF" d="M380.946,137.575h3.457l9.341,21.379h-3.944l-2.152-5.126h-10.038l-2.182,5.126h-3.822L380.946,137.575z
		 M386.283,150.523l-3.67-8.491l-3.638,8.491H386.283z"/>
	<path fill="#FFFFFF" d="M397.395,137.726h3.729v8.825h10.129v-8.825h3.729v21.229h-3.729v-8.946h-10.129v8.946h-3.729V137.726z"/>
	<path fill="#FFFFFF" d="M427.975,137.575h3.457l9.339,21.379h-3.941l-2.153-5.126h-10.037l-2.183,5.126h-3.821L427.975,137.575z
		 M433.312,150.523l-3.669-8.491l-3.639,8.491H433.312z"/>
	<path fill="#FFFFFF" d="M444.424,137.726h3.972l6.46,10.037l6.459-10.037h3.974v21.229h-3.731v-15.223l-6.701,10.007h-0.121
		l-6.641-9.948v15.164h-3.67V137.726z"/>
	<path fill="#FFFFFF" d="M305.614,174.137h3.972l6.46,10.037l6.459-10.037h3.973v21.228h-3.731v-15.223l-6.7,10.008h-0.122
		l-6.641-9.948v15.163h-3.669V174.137z"/>
	<path fill="#FFFFFF" d="M339.47,173.986h3.457l9.341,21.378h-3.943l-2.152-5.126h-10.038l-2.183,5.126h-3.821L339.47,173.986z
		 M344.807,186.935l-3.669-8.491l-3.639,8.491H344.807z"/>
	<path fill="#FFFFFF" d="M358.404,177.594h-6.73v-3.457h17.224v3.457h-6.732v17.771h-3.761V177.594z"/>
	<path fill="#FFFFFF" d="M372.85,174.137h15.739v3.336h-12.01v5.519h10.644v3.336H376.58v5.701h12.16v3.336h-15.89V174.137z"/>
	<path fill="#FFFFFF" d="M392.239,184.811v-0.059c0-5.976,4.609-10.978,11.129-10.978c6.521,0,11.069,4.942,11.069,10.916v0.062
		c0,5.973-4.611,10.976-11.131,10.976C396.788,195.728,392.239,190.787,392.239,184.811z M410.524,184.811v-0.059
		c0-4.126-3.001-7.552-7.218-7.552c-4.215,0-7.156,3.366-7.156,7.49v0.062c0,4.123,3.003,7.519,7.218,7.519
		S410.524,188.935,410.524,184.811z"/>
</g>
</svg>
