<svg version="1.1" id="Camada_1" xmlns="http://www.w3.org/2000/svg" xmlns:xlink="http://www.w3.org/1999/xlink" x="0px" y="0px"
	 width="38.036px" height="33.039px" viewBox="0 0 38.036 33.039" enable-background="new 0 0 38.036 33.039" xml:space="preserve">
<path fill-rule="evenodd" clip-rule="evenodd" fill="#D52A3A" d="M35.021,2.964C33.084,1.052,30.508,0,27.77,0
	s-5.314,1.052-7.252,2.964c-0.035,0.034-0.067,0.069-0.099,0.106l-1.4,1.677l-1.4-1.677c-0.031-0.037-0.063-0.073-0.099-0.106
	C15.582,1.052,13.006,0,10.268,0S4.953,1.052,3.016,2.964C1.071,4.88,0,7.431,0,10.145s1.071,5.264,2.996,7.162l14.95,15.281
	c0.282,0.288,0.669,0.451,1.072,0.451s0.79-0.163,1.072-0.451l14.932-15.263c1.943-1.917,3.014-4.466,3.014-7.18
	S36.966,4.881,35.021,2.964z"/>
</svg>
